<?xml version="1.0" encoding="UTF-8"?>
<svg id="Layer_1" xmlns="http://www.w3.org/2000/svg" viewBox="0 0 643.38 276.07">
  <defs>
    <style>
      .cls-1, .cls-2 {
        fill: #087588;
      }

      .cls-3 {
        letter-spacing: .04em;
      }

      .cls-4 {
        letter-spacing: .04em;
      }

      .cls-5 {
        fill: #0daab2;
      }

      .cls-2 {
        font-family: TiltWarp-Regular, 'Tilt Warp';
        font-size: 60px;
        font-variation-settings: 'XROT' 0, 'YROT' 0;
      }

      .cls-6 {
        letter-spacing: .03em;
      }
    </style>
  </defs>
  <text class="cls-2" transform="translate(226.62 162.5)"><tspan class="cls-4" x="0" y="0">DIGIB</tspan><tspan class="cls-6" x="166.86" y="0">L</tspan><tspan class="cls-3" x="197.64" y="0">OOM</tspan></text>
  <g>
    <path class="cls-5" d="M176.78,182c-13.9,13.94-28.6,18.87-29.22,19.07-.51.17-1.03.25-1.56.25-2.17,0-4.08-1.38-4.76-3.45-.85-2.62.58-5.45,3.2-6.32.12-.03,13.28-4.56,25.38-16.76,14.98-15.11,22.15-34.96,21.35-59.05-13.2,6.36-41.97,24-47.73,58.74-.42,2.57-2.63,4.48-5.23,4.52h-.11c-2.55,0-4.78-1.81-5.3-4.31-3.9-18.74-13.79-34.61-29.4-47.16-7.14-5.73-14.02-9.55-18.81-11.83-.82,24.11,6.36,43.97,21.34,59.08,12.1,12.21,25.27,16.73,25.4,16.77,2.61.86,4.04,3.7,3.18,6.32s-3.69,4.05-6.31,3.19c-.62-.2-15.32-5.13-29.22-19.07-12.82-12.86-27.37-36.11-23.94-73.87.15-1.6,1.01-3.02,2.36-3.89,1.35-.87,2.99-1.06,4.51-.53,2.32.82,14.59,5.44,27.76,16.02.52.42,1.03.84,1.54,1.26,3.06,2.55,5.91,5.23,8.56,8.02,7.88,8.31,13.94,17.68,18.11,28,4.29-11.08,10.69-20.19,17.64-27.53,2.8-2.96,5.69-5.64,8.57-8.04,14.9-12.44,29.5-17.66,29.75-17.75,1.51-.53,3.16-.33,4.52.54,1.35.87,2.21,2.28,2.36,3.89,3.44,37.77-11.12,61.02-23.94,73.87Z"/>
    <path class="cls-5" d="M149.42,127.36l.1.44c-4.57,5.12-8.48,10.58-11.7,16.32-3.36-5.95-7.38-11.56-12.03-16.77l.09-.42c1.49-6.77,4.86-18.66,11.73-29.47,6.57,10.27,10.02,21.6,11.82,29.9Z"/>
    <path class="cls-5" d="M163.34,118.47c-.34.28-.69.56-1.03.85-2.62,2.18-5.12,4.48-7.46,6.87-2.09-9.65-6.86-25.41-17.25-38.23-10.26,12.66-15.05,28.23-17.15,37.78-2.36-2.4-4.86-4.71-7.47-6.87-.34-.28-.68-.57-1.02-.84,3.35-12.53,9.79-28.43,22.03-41.11l1.05-1.08c1.39-1.44,3.71-1.44,5.11,0l1.05,1.09c12.76,13.21,19.11,30.18,22.14,41.54Z"/>
    <path class="cls-1" d="M176.78,182c-13.9,13.94-28.6,18.87-29.22,19.07-.51.17-1.03.25-1.56.25-2.17,0-4.08-1.38-4.76-3.45-.85-2.62.58-5.45,3.2-6.32.12-.03,13.28-4.56,25.38-16.76,14.98-15.11,22.15-34.96,21.35-59.05-13.2,6.36-41.97,24-47.73,58.74-.42,2.57-2.63,4.48-5.23,4.52h-.11c-2.55,0-4.78-1.81-5.3-4.31-3.9-18.74-13.79-34.61-29.4-47.16-7.14-5.73-14.02-9.55-18.81-11.83-.82,24.11,6.36,43.97,21.34,59.08,12.1,12.21,25.27,16.73,25.4,16.77,2.61.86,4.04,3.7,3.18,6.32s-3.69,4.05-6.31,3.19c-.62-.2-15.32-5.13-29.22-19.07-12.82-12.86-27.37-36.11-23.94-73.87.15-1.6,1.01-3.02,2.36-3.89,1.35-.87,2.99-1.06,4.51-.53,2.32.82,14.59,5.44,27.76,16.02.52.42,1.03.84,1.54,1.26,3.06,2.55,5.91,5.23,8.56,8.02,7.88,8.31,13.94,17.68,18.11,28,4.29-11.08,10.69-20.19,17.64-27.53,2.8-2.96,5.69-5.64,8.57-8.04,14.9-12.44,29.5-17.66,29.75-17.75,1.51-.53,3.16-.33,4.52.54,1.35.87,2.21,2.28,2.36,3.89,3.44,37.77-11.12,61.02-23.94,73.87Z"/>
  </g>
</svg>